<mxfile host="app.diagrams.net" modified="2023-03-16T12:50:51.304Z" agent="5.0 (Windows NT 10.0; Win64; x64) AppleWebKit/537.36 (KHTML, like Gecko) Chrome/111.0.0.0 Safari/537.36 Edg/111.0.1661.41" etag="nhpauyxuvjqvckdFi81T" version="20.8.23" type="github">
  <diagram id="qzLwJ4X5yYsX_Pqfa8gJ" name="第 1 页">
    <mxGraphModel dx="1401" dy="788" grid="1" gridSize="10" guides="1" tooltips="1" connect="1" arrows="1" fold="1" page="1" pageScale="1" pageWidth="827" pageHeight="1169" math="0" shadow="0">
      <root>
        <mxCell id="0" />
        <mxCell id="1" parent="0" />
        <mxCell id="-XkHRvkM_vw5rs00xsbZ-1" value="" style="rounded=0;whiteSpace=wrap;html=1;glass=0;shadow=0;perimeterSpacing=0;flipV=1;" parent="1" vertex="1">
          <mxGeometry x="49.5" y="10" width="750" height="545" as="geometry" />
        </mxCell>
        <mxCell id="-XkHRvkM_vw5rs00xsbZ-2" value="&lt;font style=&quot;font-size: 20px;&quot;&gt;基于深度学习的用电安全管理类隐患分析系统&lt;/font&gt;" style="rounded=0;whiteSpace=wrap;html=1;shadow=0;glass=0;strokeColor=default;fontFamily=宋体;fontSize=12;fontColor=default;fillColor=default;strokeWidth=0;opacity=0;" parent="1" vertex="1">
          <mxGeometry x="80" y="30" width="680" height="40" as="geometry" />
        </mxCell>
        <mxCell id="-XkHRvkM_vw5rs00xsbZ-4" value="&lt;font style=&quot;font-size: 18px;&quot;&gt;用户操作模块&lt;/font&gt;" style="rounded=1;whiteSpace=wrap;html=1;shadow=0;glass=0;strokeColor=default;fontFamily=宋体;fontSize=20;fontColor=default;fillColor=default;" parent="1" vertex="1">
          <mxGeometry x="130" y="80" width="270" height="40" as="geometry" />
        </mxCell>
        <mxCell id="-XkHRvkM_vw5rs00xsbZ-7" value="&lt;font style=&quot;font-size: 18px;&quot;&gt;数据存储模块&lt;/font&gt;" style="rounded=1;whiteSpace=wrap;html=1;shadow=0;glass=0;strokeColor=default;fontFamily=宋体;fontSize=20;fontColor=default;fillColor=default;" parent="1" vertex="1">
          <mxGeometry x="130" y="370" width="590" height="30" as="geometry" />
        </mxCell>
        <mxCell id="8fsPF6jv214_PspzoPRW-1" value="&lt;font style=&quot;font-size: 18px;&quot;&gt;告警信息模块&lt;/font&gt;" style="rounded=1;whiteSpace=wrap;html=1;shadow=0;glass=0;strokeColor=default;fontFamily=宋体;fontSize=20;fontColor=default;fillColor=default;" parent="1" vertex="1">
          <mxGeometry x="449" y="80" width="270" height="40" as="geometry" />
        </mxCell>
        <mxCell id="8fsPF6jv214_PspzoPRW-3" value="&lt;font style=&quot;font-size: 18px;&quot;&gt;数据获取模块&lt;/font&gt;" style="rounded=1;whiteSpace=wrap;html=1;shadow=0;glass=0;strokeColor=default;fontFamily=宋体;fontSize=20;fontColor=default;fillColor=default;" parent="1" vertex="1">
          <mxGeometry x="130" y="460" width="590" height="40" as="geometry" />
        </mxCell>
        <mxCell id="8fsPF6jv214_PspzoPRW-16" value="" style="endArrow=classic;html=1;rounded=0;fontFamily=宋体;exitX=0.5;exitY=1;exitDx=0;exitDy=0;entryX=0.771;entryY=0;entryDx=0;entryDy=0;entryPerimeter=0;" parent="1" source="8fsPF6jv214_PspzoPRW-1" target="-XkHRvkM_vw5rs00xsbZ-13" edge="1">
          <mxGeometry width="50" height="50" relative="1" as="geometry">
            <mxPoint x="-100" y="-110" as="sourcePoint" />
            <mxPoint x="590" y="130" as="targetPoint" />
          </mxGeometry>
        </mxCell>
        <mxCell id="8fsPF6jv214_PspzoPRW-17" value="" style="endArrow=classic;html=1;rounded=0;fontFamily=宋体;exitX=1;exitY=0.5;exitDx=0;exitDy=0;entryX=1;entryY=0.5;entryDx=0;entryDy=0;" parent="1" source="8fsPF6jv214_PspzoPRW-1" target="-XkHRvkM_vw5rs00xsbZ-7" edge="1">
          <mxGeometry width="50" height="50" relative="1" as="geometry">
            <mxPoint x="-160" y="330" as="sourcePoint" />
            <mxPoint x="-110" y="280" as="targetPoint" />
            <Array as="points">
              <mxPoint x="770" y="100" />
              <mxPoint x="770" y="385" />
            </Array>
          </mxGeometry>
        </mxCell>
        <mxCell id="UsqVXT1q0d61UkPuvCsH-4" value="" style="edgeStyle=orthogonalEdgeStyle;rounded=0;orthogonalLoop=1;jettySize=auto;html=1;fontFamily=宋体;" edge="1" parent="1" source="-XkHRvkM_vw5rs00xsbZ-13" target="-XkHRvkM_vw5rs00xsbZ-7">
          <mxGeometry relative="1" as="geometry">
            <Array as="points">
              <mxPoint x="410" y="350" />
              <mxPoint x="410" y="350" />
            </Array>
          </mxGeometry>
        </mxCell>
        <mxCell id="-XkHRvkM_vw5rs00xsbZ-13" value="深度学习模块" style="rounded=1;whiteSpace=wrap;html=1;shadow=0;glass=0;strokeColor=default;fontFamily=宋体;fontSize=18;fontColor=default;fillColor=default;verticalAlign=top;" parent="1" vertex="1">
          <mxGeometry x="130" y="170" width="589" height="160" as="geometry" />
        </mxCell>
        <mxCell id="-XkHRvkM_vw5rs00xsbZ-14" value="&lt;font style=&quot;font-size: 16px;&quot;&gt;图片分割模块&lt;/font&gt;" style="rounded=1;whiteSpace=wrap;html=1;shadow=0;glass=0;strokeColor=default;fontFamily=宋体;fontSize=18;fontColor=default;fillColor=default;" parent="1" vertex="1">
          <mxGeometry x="162.72222222222223" y="273.7824864864865" width="154.6868686868687" height="34.5945945945946" as="geometry" />
        </mxCell>
        <mxCell id="-XkHRvkM_vw5rs00xsbZ-15" value="&lt;font style=&quot;font-size: 16px;&quot;&gt;&lt;font style=&quot;font-size: 16px;&quot;&gt;设备状态&lt;/font&gt;识别模块&lt;/font&gt;" style="rounded=1;whiteSpace=wrap;html=1;shadow=0;glass=0;strokeColor=default;fontFamily=宋体;fontSize=18;fontColor=default;fillColor=default;" parent="1" vertex="1">
          <mxGeometry x="162.72222222222223" y="204.59459459459458" width="154.6868686868687" height="34.5945945945946" as="geometry" />
        </mxCell>
        <mxCell id="-XkHRvkM_vw5rs00xsbZ-16" value="配电所&lt;br&gt;场景识别模块" style="rounded=1;whiteSpace=wrap;html=1;shadow=0;glass=0;strokeColor=default;fontFamily=宋体;fontSize=18;fontColor=default;fillColor=default;verticalAlign=top;" parent="1" vertex="1">
          <mxGeometry x="347.15656565656565" y="204.59394594594596" width="154.6868686868687" height="103.7837837837838" as="geometry" />
        </mxCell>
        <mxCell id="-XkHRvkM_vw5rs00xsbZ-17" value="火灾情况&lt;br&gt;识别模块" style="rounded=1;whiteSpace=wrap;html=1;shadow=0;glass=0;strokeColor=default;fontFamily=宋体;fontSize=18;fontColor=default;fillColor=default;verticalAlign=top;" parent="1" vertex="1">
          <mxGeometry x="543.489898989899" y="204.59394594594596" width="154.6868686868687" height="103.7837837837838" as="geometry" />
        </mxCell>
        <mxCell id="8fsPF6jv214_PspzoPRW-5" value="&lt;font face=&quot;宋体&quot;&gt;Faster R-CNN&lt;/font&gt;" style="rounded=1;whiteSpace=wrap;html=1;" parent="1" vertex="1">
          <mxGeometry x="368.4047619047619" y="258" width="112.19047619047619" height="32" as="geometry" />
        </mxCell>
        <mxCell id="8fsPF6jv214_PspzoPRW-6" value="&lt;font face=&quot;宋体&quot;&gt;YOLO&lt;/font&gt;" style="rounded=1;whiteSpace=wrap;html=1;" parent="1" vertex="1">
          <mxGeometry x="564.7380952380952" y="258" width="112.19047619047619" height="32" as="geometry" />
        </mxCell>
        <mxCell id="8fsPF6jv214_PspzoPRW-18" value="" style="endArrow=classic;html=1;rounded=0;fontFamily=宋体;exitX=0.5;exitY=1;exitDx=0;exitDy=0;entryX=0.5;entryY=0;entryDx=0;entryDy=0;" parent="1" source="-XkHRvkM_vw5rs00xsbZ-15" target="-XkHRvkM_vw5rs00xsbZ-14" edge="1">
          <mxGeometry width="50" height="50" relative="1" as="geometry">
            <mxPoint x="-80" y="330" as="sourcePoint" />
            <mxPoint x="-30" y="280" as="targetPoint" />
          </mxGeometry>
        </mxCell>
        <mxCell id="UsqVXT1q0d61UkPuvCsH-1" value="" style="endArrow=classic;html=1;rounded=0;fontFamily=宋体;exitX=0;exitY=0.5;exitDx=0;exitDy=0;entryX=0;entryY=0.5;entryDx=0;entryDy=0;" edge="1" parent="1" source="-XkHRvkM_vw5rs00xsbZ-4" target="-XkHRvkM_vw5rs00xsbZ-7">
          <mxGeometry width="50" height="50" relative="1" as="geometry">
            <mxPoint x="-190" y="370" as="sourcePoint" />
            <mxPoint x="-140" y="320" as="targetPoint" />
            <Array as="points">
              <mxPoint x="80" y="100" />
              <mxPoint x="80" y="385" />
            </Array>
          </mxGeometry>
        </mxCell>
        <mxCell id="UsqVXT1q0d61UkPuvCsH-2" value="" style="endArrow=classic;html=1;rounded=0;fontFamily=宋体;entryX=0;entryY=0.75;entryDx=0;entryDy=0;exitX=0;exitY=0.25;exitDx=0;exitDy=0;" edge="1" parent="1" source="-XkHRvkM_vw5rs00xsbZ-7" target="-XkHRvkM_vw5rs00xsbZ-4">
          <mxGeometry width="50" height="50" relative="1" as="geometry">
            <mxPoint x="-160" y="450" as="sourcePoint" />
            <mxPoint x="-110" y="400" as="targetPoint" />
            <Array as="points">
              <mxPoint x="90" y="378" />
              <mxPoint x="90" y="110" />
            </Array>
          </mxGeometry>
        </mxCell>
        <mxCell id="UsqVXT1q0d61UkPuvCsH-6" value="" style="endArrow=classic;html=1;rounded=0;fontFamily=宋体;entryX=0.5;entryY=1;entryDx=0;entryDy=0;" edge="1" parent="1" source="-XkHRvkM_vw5rs00xsbZ-7" target="-XkHRvkM_vw5rs00xsbZ-13">
          <mxGeometry width="50" height="50" relative="1" as="geometry">
            <mxPoint x="433" y="329.97" as="sourcePoint" />
            <mxPoint x="300" y="39.97000000000003" as="targetPoint" />
            <Array as="points" />
          </mxGeometry>
        </mxCell>
        <mxCell id="UsqVXT1q0d61UkPuvCsH-8" value="" style="edgeStyle=orthogonalEdgeStyle;rounded=0;orthogonalLoop=1;jettySize=auto;html=1;fontFamily=宋体;entryX=0.475;entryY=-0.005;entryDx=0;entryDy=0;entryPerimeter=0;" edge="1" parent="1" target="8fsPF6jv214_PspzoPRW-3">
          <mxGeometry relative="1" as="geometry">
            <mxPoint x="410" y="400" as="sourcePoint" />
            <mxPoint x="410" y="440" as="targetPoint" />
            <Array as="points">
              <mxPoint x="410" y="420" />
            </Array>
          </mxGeometry>
        </mxCell>
        <mxCell id="UsqVXT1q0d61UkPuvCsH-9" value="" style="endArrow=classic;html=1;rounded=0;fontFamily=宋体;entryX=0.5;entryY=1;entryDx=0;entryDy=0;exitX=0.5;exitY=0;exitDx=0;exitDy=0;" edge="1" parent="1" source="8fsPF6jv214_PspzoPRW-3" target="-XkHRvkM_vw5rs00xsbZ-7">
          <mxGeometry width="50" height="50" relative="1" as="geometry">
            <mxPoint x="430" y="460" as="sourcePoint" />
            <mxPoint x="430" y="421" as="targetPoint" />
            <Array as="points" />
          </mxGeometry>
        </mxCell>
      </root>
    </mxGraphModel>
  </diagram>
</mxfile>
